<svg xmlns="http://www.w3.org/2000/svg" width="2760" height="2330" viewBox="0 0 2760 2330" role="img" aria-labelledby="title desc"><title id="title">Kivi: complete memory architecture and flow</title><desc id="desc">Regular dictation provides history. Hey Kivi coordinates private input, recall, model proposals, controls and checked results. MemoryService learns, retrieves and controls evidence-backed knowledge over the same SQLite database as ordinary application data. All product components are planned.</desc><defs><marker id="live" viewBox="0 0 10 10" refX="9" refY="5" markerWidth="8" markerHeight="8" orient="auto-start-reverse"><path d="M0 0L10 5L0 10z" fill="#2563a5"/></marker><marker id="learn" viewBox="0 0 10 10" refX="9" refY="5" markerWidth="8" markerHeight="8" orient="auto-start-reverse"><path d="M0 0L10 5L0 10z" fill="#23765a"/></marker><marker id="control" viewBox="0 0 10 10" refX="9" refY="5" markerWidth="8" markerHeight="8" orient="auto-start-reverse"><path d="M0 0L10 5L0 10z" fill="#a56b12"/></marker><marker id="db" viewBox="0 0 10 10" refX="9" refY="5" markerWidth="8" markerHeight="8" orient="auto-start-reverse"><path d="M0 0L10 5L0 10z" fill="#7060a6"/></marker><marker id="muted" viewBox="0 0 10 10" refX="9" refY="5" markerWidth="8" markerHeight="8" orient="auto-start-reverse"><path d="M0 0L10 5L0 10z" fill="#63756e"/></marker><marker id="small-live" viewBox="0 0 10 10" refX="9" refY="5" markerWidth="4" markerHeight="4" orient="auto-start-reverse"><path d="M0 0L10 5L0 10z" fill="#2563a5"/></marker><marker id="small-learn" viewBox="0 0 10 10" refX="9" refY="5" markerWidth="4" markerHeight="4" orient="auto-start-reverse"><path d="M0 0L10 5L0 10z" fill="#23765a"/></marker><marker id="small-control" viewBox="0 0 10 10" refX="9" refY="5" markerWidth="4" markerHeight="4" orient="auto-start-reverse"><path d="M0 0L10 5L0 10z" fill="#a56b12"/></marker><marker id="small-db" viewBox="0 0 10 10" refX="9" refY="5" markerWidth="4" markerHeight="4" orient="auto-start-reverse"><path d="M0 0L10 5L0 10z" fill="#7060a6"/></marker><marker id="small-muted" viewBox="0 0 10 10" refX="9" refY="5" markerWidth="4" markerHeight="4" orient="auto-start-reverse"><path d="M0 0L10 5L0 10z" fill="#63756e"/></marker></defs><rect width="2760" height="2330" fill="#fcfdfb"/><rect x="60" y="225" width="850" height="475" rx="22" fill="#f0f3f3" stroke="#cbd9d2" stroke-width="1.5"/><rect x="970" y="225" width="1730" height="475" rx="22" fill="#edf4fc" stroke="#cbd9d2" stroke-width="1.5"/><rect x="60" y="900" width="2640" height="800" rx="22" fill="#eef7f1" stroke="#cbd9d2" stroke-width="1.5"/><rect x="100" y="1030" width="760" height="578" rx="16" fill="white" stroke="#cbd9d2" stroke-width="1.5"/><rect x="1000" y="1030" width="760" height="578" rx="16" fill="white" stroke="#cbd9d2" stroke-width="1.5"/><rect x="1900" y="1030" width="760" height="578" rx="16" fill="white" stroke="#cbd9d2" stroke-width="1.5"/><rect x="60" y="1780" width="2640" height="282" rx="22" fill="#fff4db" stroke="#cbd9d2" stroke-width="1.5"/><path d="M 326,410 L 362,410" fill="none" stroke="white" stroke-width="8" stroke-linejoin="round"/><path id="dictate-format" d="M 326,410 L 362,410" fill="none" stroke="#63756e" stroke-width="2.8" stroke-linejoin="round" marker-end="url(#muted)"/><path d="M 612,410 L 648,410" fill="none" stroke="white" stroke-width="8" stroke-linejoin="round"/><path id="format-output" d="M 612,410 L 648,410" fill="none" stroke="#63756e" stroke-width="2.8" stroke-linejoin="round" marker-end="url(#muted)"/><path d="M 487,501 L 487,545" fill="none" stroke="white" stroke-width="8" stroke-linejoin="round"/><path id="paired-copy" d="M 487,501 L 487,545" fill="none" stroke="#63756e" stroke-width="2.8" stroke-linejoin="round" marker-end="url(#muted)" stroke-dasharray="10 7"/><path d="M 1325,430 L 1400,430" fill="none" stroke="white" stroke-width="8" stroke-linejoin="round"/><path id="request-coordinator" d="M 1325,430 L 1400,430" fill="none" stroke="#2563a5" stroke-width="2.8" stroke-linejoin="round" marker-end="url(#live)"/><path d="M 2000,408 L 2090,408" fill="none" stroke="white" stroke-width="8" stroke-linejoin="round"/><path id="publish-result" d="M 2000,408 L 2090,408" fill="none" stroke="#2563a5" stroke-width="2.8" stroke-linejoin="round" marker-end="url(#live)"/><path d="M 1350,615 L 1400,615" fill="none" stroke="white" stroke-width="8" stroke-linejoin="round"/><path id="model-roundtrip" d="M 1350,615 L 1400,615" fill="none" stroke="#2563a5" stroke-width="2.8" stroke-linejoin="round" marker-end="url(#live)" marker-start="url(#live)"/><path d="M 2000,594 L 2100,594" fill="none" stroke="white" stroke-width="8" stroke-linejoin="round"/><path id="tool-roundtrip" d="M 2000,594 L 2100,594" fill="none" stroke="#2563a5" stroke-width="2.8" stroke-linejoin="round" marker-end="url(#live)" marker-start="url(#live)"/><path d="M 480.0,1243 L 480.0,1255" fill="none" stroke="white" stroke-width="8" stroke-linejoin="round"/><path id="learn-step-1" d="M 480.0,1243 L 480.0,1255" fill="none" stroke="#23765a" stroke-width="2.8" stroke-linejoin="round" marker-end="url(#small-learn)"/><path d="M 480.0,1383 L 480.0,1395" fill="none" stroke="white" stroke-width="8" stroke-linejoin="round"/><path id="learn-step-2" d="M 480.0,1383 L 480.0,1395" fill="none" stroke="#23765a" stroke-width="2.8" stroke-linejoin="round" marker-end="url(#small-learn)"/><path d="M 1380.0,1243 L 1380.0,1255" fill="none" stroke="white" stroke-width="8" stroke-linejoin="round"/><path id="live-step-1" d="M 1380.0,1243 L 1380.0,1255" fill="none" stroke="#2563a5" stroke-width="2.8" stroke-linejoin="round" marker-end="url(#small-live)"/><path d="M 1380.0,1383 L 1380.0,1395" fill="none" stroke="white" stroke-width="8" stroke-linejoin="round"/><path id="live-step-2" d="M 1380.0,1383 L 1380.0,1395" fill="none" stroke="#2563a5" stroke-width="2.8" stroke-linejoin="round" marker-end="url(#small-live)"/><path d="M 2280.0,1243 L 2280.0,1255" fill="none" stroke="white" stroke-width="8" stroke-linejoin="round"/><path id="control-step-1" d="M 2280.0,1243 L 2280.0,1255" fill="none" stroke="#a56b12" stroke-width="2.8" stroke-linejoin="round" marker-end="url(#small-control)"/><path d="M 2280.0,1383 L 2280.0,1395" fill="none" stroke="white" stroke-width="8" stroke-linejoin="round"/><path id="control-step-2" d="M 2280.0,1383 L 2280.0,1395" fill="none" stroke="#a56b12" stroke-width="2.8" stroke-linejoin="round" marker-end="url(#small-control)"/><path d="M 480,677 L 480,783 L 31,783 L 31,1175 L 130,1175" fill="none" stroke="white" stroke-width="8" stroke-linejoin="round"/><path id="history-import" d="M 480,677 L 480,783 L 31,783 L 31,1175 L 130,1175" fill="none" stroke="#23765a" stroke-width="2.8" stroke-linejoin="round" marker-end="url(#learn)"/><path d="M 1490,650 L 1490,817 L 1300,817 L 1300,1030" fill="none" stroke="white" stroke-width="8" stroke-linejoin="round"/><path id="recall-request" d="M 1490,650 L 1490,817 L 1300,817 L 1300,1030" fill="none" stroke="#2563a5" stroke-width="2.8" stroke-linejoin="round" marker-end="url(#live)"/><path d="M 1570,1030 L 1570,763 L 1750,763 L 1750,650" fill="none" stroke="white" stroke-width="8" stroke-linejoin="round"/><path id="evidence-return" d="M 1570,1030 L 1570,763 L 1750,763 L 1750,650" fill="none" stroke="#2563a5" stroke-width="2.8" stroke-linejoin="round" marker-end="url(#live)"/><path d="M 1920,650 L 1920,813 L 2185,813 L 2185,1030" fill="none" stroke="white" stroke-width="8" stroke-linejoin="round"/><path id="control-roundtrip" d="M 1920,650 L 1920,813 L 2185,813 L 2185,1030" fill="none" stroke="#a56b12" stroke-width="2.8" stroke-linejoin="round" marker-end="url(#control)" marker-start="url(#control)"/><path d="M 1430,650 L 1430,723 L 950,723 L 950,1345 L 830,1345" fill="none" stroke="white" stroke-width="8" stroke-linejoin="round"/><path id="release-learning" d="M 1430,650 L 1430,723 L 950,723 L 950,1345 L 830,1345" fill="none" stroke="#23765a" stroke-width="2.8" stroke-linejoin="round" marker-end="url(#learn)" stroke-dasharray="10 7"/><path d="M 830,1295 L 912,1295 L 912,621 L 1010,621" fill="none" stroke="white" stroke-width="8" stroke-linejoin="round"/><path id="learner-model" d="M 830,1295 L 912,1295 L 912,621 L 1010,621" fill="none" stroke="#23765a" stroke-width="2.8" stroke-linejoin="round" marker-end="url(#learn)" marker-start="url(#learn)" stroke-dasharray="10 7"/><path d="M 480,1700 L 480,1780" fill="none" stroke="white" stroke-width="8" stroke-linejoin="round"/><path id="learn-store" d="M 480,1700 L 480,1780" fill="none" stroke="#7060a6" stroke-width="2.8" stroke-linejoin="round" marker-end="url(#db)" marker-start="url(#db)"/><path d="M 1380,1700 L 1380,1780" fill="none" stroke="white" stroke-width="8" stroke-linejoin="round"/><path id="recall-store" d="M 1380,1700 L 1380,1780" fill="none" stroke="#7060a6" stroke-width="2.8" stroke-linejoin="round" marker-end="url(#db)" marker-start="url(#db)"/><path d="M 2280,1700 L 2280,1780" fill="none" stroke="white" stroke-width="8" stroke-linejoin="round"/><path id="control-store" d="M 2280,1700 L 2280,1780" fill="none" stroke="#7060a6" stroke-width="2.8" stroke-linejoin="round" marker-end="url(#db)" marker-start="url(#db)"/><rect x="88" y="345" width="238" height="156" rx="16" fill="white" stroke="#cbd9d2" stroke-width="1.5"/><rect x="362" y="345" width="250" height="156" rx="16" fill="white" stroke="#cbd9d2" stroke-width="1.5"/><rect x="648" y="345" width="232" height="156" rx="16" fill="white" stroke="#cbd9d2" stroke-width="1.5"/><rect x="166" y="545" width="650" height="132" rx="16" fill="white" stroke="#cbd9d2" stroke-width="1.5"/><rect x="1000" y="345" width="325" height="175" rx="16" fill="white" stroke="#cbd9d2" stroke-width="1.5"/><rect x="1400" y="335" width="600" height="315" rx="16" fill="white" stroke="#cbd9d2" stroke-width="1.5"/><rect x="2090" y="345" width="565" height="165" rx="16" fill="white" stroke="#cbd9d2" stroke-width="1.5"/><rect x="1010" y="555" width="340" height="132" rx="16" fill="#f2eef9" stroke="#cbd9d2" stroke-width="1.5"/><rect x="2100" y="535" width="545" height="140" rx="16" fill="#f2eef9" stroke="#cbd9d2" stroke-width="1.5"/><rect x="130" y="1115" width="700" height="128" rx="16" fill="white" stroke="#cbd9d2" stroke-width="1.5"/><rect x="130" y="1255" width="700" height="128" rx="16" fill="white" stroke="#cbd9d2" stroke-width="1.5"/><rect x="130" y="1395" width="700" height="128" rx="16" fill="white" stroke="#cbd9d2" stroke-width="1.5"/><rect x="1030" y="1115" width="700" height="128" rx="16" fill="white" stroke="#cbd9d2" stroke-width="1.5"/><rect x="1030" y="1255" width="700" height="128" rx="16" fill="white" stroke="#cbd9d2" stroke-width="1.5"/><rect x="1030" y="1395" width="700" height="128" rx="16" fill="white" stroke="#cbd9d2" stroke-width="1.5"/><rect x="1930" y="1115" width="700" height="128" rx="16" fill="white" stroke="#cbd9d2" stroke-width="1.5"/><rect x="1930" y="1255" width="700" height="128" rx="16" fill="white" stroke="#cbd9d2" stroke-width="1.5"/><rect x="1930" y="1395" width="700" height="128" rx="16" fill="white" stroke="#cbd9d2" stroke-width="1.5"/><rect x="100" y="1900" width="810" height="134" rx="16" fill="white" stroke="#cbd9d2" stroke-width="1.5"/><rect x="970" y="1900" width="820" height="134" rx="16" fill="white" stroke="#cbd9d2" stroke-width="1.5"/><rect x="1850" y="1900" width="810" height="134" rx="16" fill="white" stroke="#cbd9d2" stroke-width="1.5"/><rect x="60" y="2210" width="2640" height="68" rx="16" fill="#edf4fc" stroke="#cbd9d2" stroke-width="1.5"/><text x="60" y="86" fill="#173c34" font-family="Arial, Helvetica, sans-serif" font-size="51" font-weight="700"><tspan x="60" dy="0">Kivi → useful history → trustworthy assistance</tspan></text><text x="60" y="131" fill="#35554b" font-family="Arial, Helvetica, sans-serif" font-size="27" font-weight="400"><tspan x="60" dy="0">One product story: dictate a trip budget, use it later, change it, inspect it and forget it.</tspan></text><text x="60" y="178" fill="#63756e" font-family="Arial, Helvetica, sans-serif" font-size="21" font-weight="700"><tspan x="60" dy="0">PROPOSED ARCHITECTURE • App unbuilt • Only the isolated SQLite probe has passed 12/12 checks</tspan></text><text x="88" y="278" fill="#173c34" font-family="Arial, Helvetica, sans-serif" font-size="33" font-weight="700"><tspan x="88" dy="0">A REGULAR KIVI</tspan></text><text x="88" y="315" fill="#63756e" font-family="Arial, Helvetica, sans-serif" font-size="22" font-weight="400"><tspan x="88" dy="0">Write what the person intends; existing product context.</tspan></text><text x="111" y="387" fill="#173c34" font-family="Arial, Helvetica, sans-serif" font-size="25" font-weight="700"><tspan x="111" dy="0">Dictate</tspan></text><text x="111" y="423.5" fill="#35554b" font-family="Arial, Helvetica, sans-serif" font-size="21" font-weight="400"><tspan x="111" dy="0">“Jaipur trip:</tspan><tspan x="111" dy="27.3">total hotel budget</tspan><tspan x="111" dy="27.3">INR 6,000.”</tspan></text><text x="385" y="387" fill="#173c34" font-family="Arial, Helvetica, sans-serif" font-size="25" font-weight="700"><tspan x="385" dy="0">Format faithfully</tspan></text><text x="385" y="425.5" fill="#35554b" font-family="Arial, Helvetica, sans-serif" font-size="23" font-weight="400"><tspan x="385" dy="0">Words, spelling</tspan><tspan x="385" dy="29.900000000000002">and writing style.</tspan></text><text x="671" y="387" fill="#173c34" font-family="Arial, Helvetica, sans-serif" font-size="25" font-weight="700"><tspan x="671" dy="0">Write text</tspan></text><text x="671" y="425.5" fill="#35554b" font-family="Arial, Helvetica, sans-serif" font-size="23" font-weight="400"><tspan x="671" dy="0">To the intended</tspan><tspan x="671" dy="29.900000000000002">destination.</tspan></text><text x="189" y="587" fill="#173c34" font-family="Arial, Helvetica, sans-serif" font-size="25" font-weight="700"><tspan x="189" dy="0">Paired historical record</tspan></text><text x="189" y="625.5" fill="#35554b" font-family="Arial, Helvetica, sans-serif" font-size="23" font-weight="400"><tspan x="189" dy="0">Raw ASR + formatted text + available metadata. Our demo</tspan><tspan x="189" dy="29.900000000000002">imports / replays these records.</tspan></text><rect x="498" y="506" width="289" height="30.7" rx="4" fill="white" stroke="white" stroke-width="1.5"/><text x="505" y="528" fill="#63756e" font-family="Arial, Helvetica, sans-serif" font-size="19" font-weight="700"><tspan x="505" dy="0">capture / replay</tspan></text><text x="998" y="278" fill="#173c34" font-family="Arial, Helvetica, sans-serif" font-size="33" font-weight="700"><tspan x="998" dy="0">B HEY KIVI</tspan></text><text x="998" y="315" fill="#63756e" font-family="Arial, Helvetica, sans-serif" font-size="22" font-weight="400"><tspan x="998" dy="0">Help with the current request, using relevant permitted history.</tspan></text><text x="1023" y="387" fill="#173c34" font-family="Arial, Helvetica, sans-serif" font-size="25" font-weight="700"><tspan x="1023" dy="0">Ask for help</tspan></text><text x="1023" y="425.5" fill="#35554b" font-family="Arial, Helvetica, sans-serif" font-size="23" font-weight="400"><tspan x="1023" dy="0">“Jaipur checklist, using our</tspan><tspan x="1023" dy="29.900000000000002">budget.”</tspan><tspan x="1023" dy="29.900000000000002">Typed request.</tspan></text><text x="1423" y="377" fill="#173c34" font-family="Arial, Helvetica, sans-serif" font-size="25" font-weight="700"><tspan x="1423" dy="0">Request coordinator · Python</tspan></text><text x="1423" y="417.5" fill="#35554b" font-family="Arial, Helvetica, sans-serif" font-size="25" font-weight="400"><tspan x="1423" dy="0">Accept private input; hold its learning job.</tspan><tspan x="1423" dy="32.5">① Recall evidence → model proposal.</tspan><tspan x="1423" dy="32.5">② Validate + commit proposed controls.</tspan><tspan x="1423" dy="32.5">③ Release only permitted learning.</tspan><tspan x="1423" dy="32.5">④ Continue → check freshness → persist.</tspan></text><text x="2113" y="387" fill="#173c34" font-family="Arial, Helvetica, sans-serif" font-size="25" font-weight="700"><tspan x="2113" dy="0">Useful, inspectable result</tspan></text><text x="2113" y="425.5" fill="#35554b" font-family="Arial, Helvetica, sans-serif" font-size="23" font-weight="400"><tspan x="2113" dy="0">Answer, draft, focused question or honest</tspan><tspan x="2113" dy="29.900000000000002">unknown. Apply current instructions; show</tspan><tspan x="2113" dy="29.900000000000002">supporting sources.</tspan></text><text x="1033" y="597" fill="#173c34" font-family="Arial, Helvetica, sans-serif" font-size="25" font-weight="700"><tspan x="1033" dy="0">DeepSeek · NVIDIA</tspan></text><text x="1033" y="634.5" fill="#35554b" font-family="Arial, Helvetica, sans-serif" font-size="22" font-weight="400"><tspan x="1033" dy="0">HTTPX: bounded calls.</tspan><tspan x="1033" dy="28.6">Proposes meaning.</tspan></text><text x="2123" y="577" fill="#173c34" font-family="Arial, Helvetica, sans-serif" font-size="25" font-weight="700"><tspan x="2123" dy="0">Optional authorized tool</tspan></text><text x="2123" y="614.5" fill="#35554b" font-family="Arial, Helvetica, sans-serif" font-size="22" font-weight="400"><tspan x="2123" dy="0">Validate authority + target. Observe result;</tspan><tspan x="2123" dy="28.6">reconcile unknown outcomes.</tspan></text><rect x="2003" y="365" width="90" height="29.400000000000002" rx="4" fill="white" stroke="white" stroke-width="1.5"/><text x="2010" y="386" fill="#2563a5" font-family="Arial, Helvetica, sans-serif" font-size="18" font-weight="700"><tspan x="2010" dy="0">publish</tspan></text><rect x="2001" y="517" width="102" height="50.2" rx="4" fill="white" stroke="white" stroke-width="1.5"/><text x="2008" y="537" fill="#2563a5" font-family="Arial, Helvetica, sans-serif" font-size="17" font-weight="700"><tspan x="2008" dy="0">action ↔</tspan><tspan x="2008" dy="22.1">outcome</tspan></text><text x="88" y="953" fill="#173c34" font-family="Arial, Helvetica, sans-serif" font-size="33" font-weight="700"><tspan x="88" dy="0">C SEMANTIC MEMORY · MemoryService</tspan></text><text x="88" y="990" fill="#63756e" font-family="Arial, Helvetica, sans-serif" font-size="22" font-weight="400"><tspan x="88" dy="0">Application rules + durable understanding. All routes use the same permission,</tspan><tspan x="88" dy="28.6">source and revision checks.</tspan></text><text x="126" y="1079" fill="#23765a" font-family="Arial, Helvetica, sans-serif" font-size="29" font-weight="700"><tspan x="126" dy="0">CREATE / LEARN</tspan></text><text x="1026" y="1079" fill="#2563a5" font-family="Arial, Helvetica, sans-serif" font-size="29" font-weight="700"><tspan x="1026" dy="0">READ / RECALL</tspan></text><text x="1926" y="1079" fill="#a56b12" font-family="Arial, Helvetica, sans-serif" font-size="29" font-weight="700"><tspan x="1926" dy="0">UPDATE / FORGET / INSPECT</tspan></text><text x="153" y="1157" fill="#173c34" font-family="Arial, Helvetica, sans-serif" font-size="25" font-weight="700"><tspan x="153" dy="0">1 Persist evidence first</tspan></text><text x="153" y="1193.5" fill="#35554b" font-family="Arial, Helvetica, sans-serif" font-size="21" font-weight="400"><tspan x="153" dy="0">Validate import; save exact source revision + durable job. Permitted</tspan><tspan x="153" dy="27.3">source search is independent of extraction.</tspan></text><text x="153" y="1297" fill="#173c34" font-family="Arial, Helvetica, sans-serif" font-size="25" font-weight="700"><tspan x="153" dy="0">2 Propose useful small claims</tspan></text><text x="153" y="1333.5" fill="#35554b" font-family="Arial, Helvetica, sans-serif" font-size="21" font-weight="400"><tspan x="153" dy="0">Background worker uses the shared model. Keep speaker, subject,</tspan><tspan x="153" dy="27.3">scope, time, negation and exact support.</tspan></text><text x="153" y="1437" fill="#173c34" font-family="Arial, Helvetica, sans-serif" font-size="25" font-weight="700"><tspan x="153" dy="0">3 Validate and admit</tspan></text><text x="153" y="1473.5" fill="#35554b" font-family="Arial, Helvetica, sans-serif" font-size="21" font-weight="400"><tspan x="153" dy="0">Add / revise / link / no-op / preserve conflict / reject. Commit</tspan><tspan x="153" dy="27.3">accepted memory, evidence and index jobs together.</tspan></text><text x="1053" y="1157" fill="#173c34" font-family="Arial, Helvetica, sans-serif" font-size="25" font-weight="700"><tspan x="1053" dy="0">1 Define the permitted question</tspan></text><text x="1053" y="1193.5" fill="#35554b" font-family="Arial, Helvetica, sans-serif" font-size="21" font-weight="400"><tspan x="1053" dy="0">Check trusted user, scope, relevant time and current exclusions.</tspan><tspan x="1053" dy="27.3">Include the current input privately.</tspan></text><text x="1053" y="1297" fill="#173c34" font-family="Arial, Helvetica, sans-serif" font-size="25" font-weight="700"><tspan x="1053" dy="0">2 Search originals + memories</tspan></text><text x="1053" y="1333.5" fill="#35554b" font-family="Arial, Helvetica, sans-serif" font-size="21" font-weight="400"><tspan x="1053" dy="0">FTS5 keywords first. Optional vectors help with meaning; supported</tspan><tspan x="1053" dy="27.3">relationships can connect records.</tspan></text><text x="1053" y="1437" fill="#173c34" font-family="Arial, Helvetica, sans-serif" font-size="25" font-weight="700"><tspan x="1053" dy="0">3 Return a supported evidence bundle</tspan></text><text x="1053" y="1473.5" fill="#35554b" font-family="Arial, Helvetica, sans-serif" font-size="21" font-weight="400"><tspan x="1053" dy="0">Inspect exact spans; combine and deduplicate. Include sources,</tspan><tspan x="1053" dy="27.3">conflicts, coverage and a freshness token.</tspan></text><text x="1953" y="1157" fill="#173c34" font-family="Arial, Helvetica, sans-serif" font-size="25" font-weight="700"><tspan x="1953" dy="0">1 Resolve intent and exact target</tspan></text><text x="1953" y="1193.5" fill="#35554b" font-family="Arial, Helvetica, sans-serif" font-size="21" font-weight="400"><tspan x="1953" dy="0">Remember / correct / change / forget / delete source. Check scope,</tspan><tspan x="1953" dy="27.3">time and expected version; clarify ambiguity.</tspan></text><text x="1953" y="1297" fill="#173c34" font-family="Arial, Helvetica, sans-serif" font-size="25" font-weight="700"><tspan x="1953" dy="0">2 Commit compatible changes together</tspan></text><text x="1953" y="1333.5" fill="#35554b" font-family="Arial, Helvetica, sans-serif" font-size="21" font-weight="400"><tspan x="1953" dy="0">Knowledge, exclusions, permitted text, affected indexes / links,</tspan><tspan x="1953" dy="27.3">revision and actual receipt change atomically.</tspan></text><text x="1953" y="1437" fill="#173c34" font-family="Arial, Helvetica, sans-serif" font-size="25" font-weight="700"><tspan x="1953" dy="0">3 Enforce every future use</tspan></text><text x="1953" y="1473.5" fill="#35554b" font-family="Arial, Helvetica, sans-serif" font-size="21" font-weight="400"><tspan x="1953" dy="0">Suppress affected derivatives, jobs and replay; rebuild from</tspan><tspan x="1953" dy="27.3">surviving evidence. Source deletion has a separate boundary.</tspan></text><text x="130" y="1563" fill="#23765a" font-family="Arial, Helvetica, sans-serif" font-size="22" font-weight="700"><tspan x="130" dy="0">Routine learning is background work.</tspan><tspan x="130" dy="28.6">Explicit “remember” must commit before “saved”.</tspan></text><text x="1030" y="1563" fill="#2563a5" font-family="Arial, Helvetica, sans-serif" font-size="22" font-weight="700"><tspan x="1030" dy="0">Source fallback covers missed memories.</tspan><tspan x="1030" dy="28.6">Full lists and counts need completeness checks.</tspan></text><text x="1930" y="1563" fill="#a56b12" font-family="Arial, Helvetica, sans-serif" font-size="22" font-weight="700"><tspan x="1930" dy="0">A real-world change preserves earlier history.</tspan><tspan x="1930" dy="28.6">Forget also blocks known supporting spans.</tspan></text><text x="100" y="1648" fill="#173c34" font-family="Arial, Helvetica, sans-serif" font-size="23" font-weight="700"><tspan x="100" dy="0">MEMORY RECORD = attributed claim + subject / scope + time + exact source evidence + status / revision.</tspan><tspan x="100" dy="29.900000000000002">Example: Jaipur trip · total hotel budget · 6000 INR · original supporting phrase. Twelve categories are labels on shared records.</tspan></text><rect x="58" y="737" width="394" height="35.900000000000006" rx="4" fill="white" stroke="white" stroke-width="1.5"/><text x="65" y="763" fill="#23765a" font-family="Arial, Helvetica, sans-serif" font-size="23" font-weight="700"><tspan x="65" dy="0">Import permitted history</tspan></text><rect x="1188" y="834" width="344" height="34.6" rx="4" fill="white" stroke="white" stroke-width="1.5"/><text x="1195" y="859" fill="#2563a5" font-family="Arial, Helvetica, sans-serif" font-size="22" font-weight="700"><tspan x="1195" dy="0">① retrieval request ↓</tspan></text><rect x="1578" y="782" width="329" height="33.3" rx="4" fill="white" stroke="white" stroke-width="1.5"/><text x="1585" y="806" fill="#2563a5" font-family="Arial, Helvetica, sans-serif" font-size="21" font-weight="700"><tspan x="1585" dy="0">↑ evidence + versions</tspan></text><rect x="2203" y="796" width="434" height="34.6" rx="4" fill="white" stroke="white" stroke-width="1.5"/><text x="2210" y="821" fill="#a56b12" font-family="Arial, Helvetica, sans-serif" font-size="22" font-weight="700"><tspan x="2210" dy="0">② controls ↓ / receipts ↑</tspan></text><rect x="971" y="724" width="494" height="60.6" rx="4" fill="white" stroke="white" stroke-width="1.5"/><text x="978" y="748" fill="#23765a" font-family="Arial, Helvetica, sans-serif" font-size="21" font-weight="700"><tspan x="978" dy="0">③ after controls: release only</tspan><tspan x="978" dy="27.3">surviving text; otherwise hold</tspan></text><rect x="763" y="862" width="159" height="55.4" rx="4" fill="white" stroke="white" stroke-width="1.5"/><text x="770" y="884" fill="#23765a" font-family="Arial, Helvetica, sans-serif" font-size="19" font-weight="700"><tspan x="770" dy="0">background</tspan><tspan x="770" dy="24.7">model call</tspan></text><rect x="73" y="1727" width="814" height="34.6" rx="4" fill="white" stroke="white" stroke-width="1.5"/><text x="80" y="1752" fill="#7060a6" font-family="Arial, Helvetica, sans-serif" font-size="22" font-weight="700"><tspan x="80" dy="0">Read sources ↔ commit claims + jobs</tspan></text><rect x="983" y="1727" width="814" height="34.6" rx="4" fill="white" stroke="white" stroke-width="1.5"/><text x="990" y="1752" fill="#7060a6" font-family="Arial, Helvetica, sans-serif" font-size="22" font-weight="700"><tspan x="990" dy="0">Query sources + memories + indexes</tspan></text><rect x="1868" y="1727" width="814" height="34.6" rx="4" fill="white" stroke="white" stroke-width="1.5"/><text x="1875" y="1752" fill="#7060a6" font-family="Arial, Helvetica, sans-serif" font-size="22" font-weight="700"><tspan x="1875" dy="0">Read targets ↔ commit controls + receipt</tspan></text><text x="88" y="1833" fill="#173c34" font-family="Arial, Helvetica, sans-serif" font-size="33" font-weight="700"><tspan x="88" dy="0">D ONE REGULAR PRODUCT DATABASE · SQLite</tspan></text><text x="88" y="1870" fill="#63756e" font-family="Arial, Helvetica, sans-serif" font-size="22" font-weight="400"><tspan x="88" dy="0">Shared storage and transaction boundary. MemoryService gives these records their learning, retrieval and control behavior.</tspan></text><text x="123" y="1942" fill="#173c34" font-family="Arial, Helvetica, sans-serif" font-size="25" font-weight="700"><tspan x="123" dy="0">General product + source data</tspan></text><text x="123" y="1980.5" fill="#35554b" font-family="Arial, Helvetica, sans-serif" font-size="23" font-weight="400"><tspan x="123" dy="0">Original records / revisions · requests / conversations</tspan><tspan x="123" dy="29.900000000000002">Jobs / runs / operation outcomes / control receipts</tspan></text><text x="993" y="1942" fill="#173c34" font-family="Arial, Helvetica, sans-serif" font-size="25" font-weight="700"><tspan x="993" dy="0">Semantic-memory data</tspan></text><text x="993" y="1980.5" fill="#35554b" font-family="Arial, Helvetica, sans-serif" font-size="23" font-weight="400"><tspan x="993" dy="0">Accepted claims / versions · evidence / dependencies</tspan><tspan x="993" dy="29.900000000000002">Subjects / scope / time · supported aliases / relationships</tspan></text><text x="1873" y="1942" fill="#173c34" font-family="Arial, Helvetica, sans-serif" font-size="25" font-weight="700"><tspan x="1873" dy="0">Rebuildable search representations</tspan></text><text x="1873" y="1980.5" fill="#35554b" font-family="Arial, Helvetica, sans-serif" font-size="23" font-weight="400"><tspan x="1873" dy="0">FTS5 source + memory indexes · optional local vectors</tspan><tspan x="1873" dy="29.900000000000002">Vectors locate candidates; evidence supports answers.</tspan></text><text x="70" y="2112" fill="#173c34" font-family="Arial, Helvetica, sans-serif" font-size="22" font-weight="700"><tspan x="70" dy="0">WHY THIS STACK</tspan></text><text x="70" y="2146" fill="#35554b" font-family="Arial, Helvetica, sans-serif" font-size="21" font-weight="400"><tspan x="70" dy="0">Python: explicit request order. Pydantic: data-shape checks.</tspan><tspan x="70" dy="27.3">SQLite: related changes commit together. HTTPX: bounded model calls.</tspan></text><text x="970" y="2112" fill="#173c34" font-family="Arial, Helvetica, sans-serif" font-size="22" font-weight="700"><tspan x="970" dy="0">WHY THIS STAYS CORRECT</tspan></text><text x="970" y="2146" fill="#35554b" font-family="Arial, Helvetica, sans-serif" font-size="21" font-weight="400"><tspan x="970" dy="0">Exact evidence; qualified meaning; one exclusion boundary.</tspan><tspan x="970" dy="27.3">Short transactions, repeat-safe keys, stale-worker rejection and fresh publication.</tspan></text><text x="1870" y="2112" fill="#173c34" font-family="Arial, Helvetica, sans-serif" font-size="22" font-weight="700"><tspan x="1870" dy="0">WHAT REMAINS TO PROVE</tspan></text><text x="1870" y="2146" fill="#35554b" font-family="Arial, Helvetica, sans-serif" font-size="21" font-weight="400"><tspan x="1870" dy="0">Build the real UI + backend, corpus and model integration.</tspan><tspan x="1870" dy="27.3">Measure quality, latency, failures and cost; vectors remain optional.</tspan></text><text x="85" y="2249" fill="#173c34" font-family="Arial, Helvetica, sans-serif" font-size="23" font-weight="700"><tspan x="85" dy="0">ONE EXAMPLE: dictate INR 6,000 → learn trip-scoped budget → draft with evidence → change to INR 8,000 → inspect → forget across all retrieval routes.</tspan></text><text x="60" y="2307" fill="#63756e" font-family="Arial, Helvetica, sans-serif" font-size="17" font-weight="400"><tspan x="60" dy="0">Arrow colors: blue = live request / evidence; green = learning (dashed = background); amber = controls; purple = shared DB access. Sources: ARCHITECTURE.md v1.1 §§0–12; Golden Goose brief. 6 Sep 2026.</tspan></text></svg>